<?xml version="1.0" encoding="UTF-8"?>
<svg width="100" height="100" viewBox="0 0 100 100" fill="none" xmlns="http://www.w3.org/2000/svg">
  <!-- Main C++ text -->
  <path d="M35 75C25 75 17.5 71.25 12.5 63.75C7.5 56.25 5 46.25 5 33.75C5 21.25 7.5 11.25 12.5 3.75C17.5 -3.75 25 -7.5 35 -7.5C42.5 -7.5 48.75 -5 53.75 0C58.75 5 61.25 11.25 61.25 18.75H47.5C47.5 15 46.25 11.875 43.75 9.375C41.25 6.875 38.125 5.625 34.375 5.625C28.125 5.625 23.75 8.125 21.25 13.125C18.75 18.125 17.5 25 17.5 33.75C17.5 42.5 18.75 49.375 21.25 54.375C23.75 59.375 28.125 61.875 34.375 61.875C38.125 61.875 41.25 60.625 43.75 58.125C46.25 55.625 47.5 52.5 47.5 48.75H61.25C61.25 56.25 58.75 62.5 53.75 67.5C48.75 72.5 42.5 75 35 75Z" fill="currentColor" transform="translate(15, 20)"/>
  
  <!-- Plus symbols -->
  <path d="M65 20H75V30H85V40H75V50H65V40H55V30H65V20Z" fill="currentColor"/>
  <path d="M85 20H95V30H105V40H95V50H85V40H75V30H85V20Z" fill="currentColor" transform="translate(-5, 0)"/>
</svg>
