<svg xmlns="http://www.w3.org/2000/svg" viewBox="0 0 128 128">
  <path fill="#fff" d="M15 44c-.8-3.3-1.2-6.8-1.2-10.3C13.8 15.3 28.4 0 46.6 0c18.2 0 32.8 15.3 32.8 33.7 0 3.5-.4 7-1.2 10.3h31.2c3.2 0 5.8 2.6 5.8 5.8v66.7c0 3.2-2.6 5.8-5.8 5.8H15c-3.2 0-5.8-2.6-5.8-5.8V49.8c0-3.2 2.6-5.8 5.8-5.8h31.2zM46.6 8c-14.1 0-25.6 11.5-25.6 25.7 0 3.2.4 6.3 1.2 9.3h48.8c.8-3 1.2-6.1 1.2-9.3C72.2 19.5 60.7 8 46.6 8z"/>
  <circle fill="#fff" cx="35" cy="36" r="6"/>
  <circle fill="#fff" cx="58" cy="36" r="6"/>
  <path fill="#fff" d="M81.4 44c-.8-3.3-1.2-6.8-1.2-10.3C80.2 15.3 94.8 0 113 0s32.8 15.3 32.8 33.7c0 3.5-.4 7-1.2 10.3h31.2c3.2 0 5.8 2.6 5.8 5.8v66.7c0 3.2-2.6 5.8-5.8 5.8H81.4c-3.2 0-5.8-2.6-5.8-5.8V49.8c0-3.2 2.6-5.8 5.8-5.8zM113 8c-14.1 0-25.6 11.5-25.6 25.7 0 3.2.4 6.3 1.2 9.3h48.8c.8-3 1.2-6.1 1.2-9.3C138.6 19.5 127.1 8 113 8z"/>
  <circle fill="#fff" cx="101" cy="36" r="6"/>
  <circle fill="#fff" cx="124" cy="36" r="6"/>
  <path fill="#fff" d="M64 68c17.7 0 32 14.3 32 32S81.7 132 64 132 32 117.7 32 100s14.3-32 32-32zm0 8c-13.3 0-24 10.7-24 24s10.7 24 24 24 24-10.7 24-24-10.7-24-24-24z"/>
</svg>
