<svg xmlns="http://www.w3.org/2000/svg" viewBox="0 0 128 128">
  <path fill="#fff" d="M64 12c-28.7 0-52 17.5-52 39 0 21.5 23.3 39 52 39s52-17.5 52-39c0-21.5-23.3-39-52-39zm-16.5 55.2h-6.5l-3.5-18h-5l3.5 18h-6.5l-3.5-18h-5l3.5 18h-6.5v6h38v-6h-4.5l-3.5-18h-5l3.5 18zm33 0h-6.5l-3.5-18h-5l3.5 18h-6.5l-3.5-18h-5l3.5 18h-6.5v6h38v-6h-4.5l-3.5-18h-5l3.5 18z"/>
  <path fill="#fff" d="M64 28c-19.9 0-36 10.8-36 24s16.1 24 36 24 36-10.8 36-24-16.1-24-36-24zm-16.5 35.2h-6.5v-6h4.5l3.5-18h5l-3.5 18h6.5l3.5-18h5l-3.5 18h6.5v6h-38zm33 0h-6.5v-6h4.5l3.5-18h5l-3.5 18h6.5l3.5-18h5l-3.5 18h6.5v6h-38z"/>
</svg>
