<svg xmlns="http://www.w3.org/2000/svg" viewBox="0 0 128 128">
  <path fill="#fff" d="M64 0c-1.6 0-3.1.1-4.7.3L57.5 8c-1.6.3-3.1.6-4.6 1.1l-3.7-7.1c-1.5.5-3 1-4.4 1.7l-1.2 7.9c-1.5.7-2.9 1.4-4.2 2.2l-5.4-6c-1.3.9-2.6 1.8-3.8 2.8l1.3 7.8c-1.2 1-2.4 2-3.5 3.1l-6.8-4.4c-1 1.1-2 2.3-2.9 3.6l3.8 7c-.9 1.2-1.7 2.5-2.4 3.8l-7.6-2.6c-.7 1.3-1.3 2.7-1.9 4.1l5.9 5.7c-.5 1.4-1 2.8-1.3 4.2l-7.9-.6c-.3 1.5-.5 3-.6 4.5l7.5 4c-.1 1.4-.2 2.9-.1 4.4l-7.5 1.4c.1 1.5.4 3 .7 4.5l7.8 2.1c.3 1.4.7 2.8 1.2 4.2l-6.7 3.3c.6 1.4 1.2 2.8 1.9 4.1l7.5.2c.7 1.3 1.5 2.6 2.4 3.8l-5.3 5c.9 1.2 1.8 2.4 2.9 3.5l6.8-1.8c1.1 1.1 2.2 2.1 3.5 3.1l-3.5 6.3c1.2.9 2.4 1.8 3.8 2.6l5.6-3.6c1.3.8 2.7 1.5 4.2 2.1l-1.5 7.1c1.4.6 2.9 1.2 4.4 1.6l4-5.2c1.5.4 3 .7 4.6.9l.7 7.5c.8.1 1.6.1 2.4.1 .8 0 1.5 0 2.3-.1l.7-7.5c1.6-.2 3.1-.5 4.6-.9l4 5.2c1.5-.4 3-.9 4.4-1.6l-1.5-7.1c1.4-.6 2.9-1.3 4.2-2.1l5.6 3.6c1.3-.8 2.6-1.7 3.8-2.6l-3.5-6.3c1.2-1 2.4-2 3.5-3.1l6.8 1.8c1-.1 2-1.3 2.9-2.5l-5.3-5c.9-1.2 1.7-2.5 2.4-3.8l7.5-.2c.7-1.3 1.3-2.7 1.9-4.1l-6.7-3.3c.5-1.4.9-2.8 1.2-4.2l7.8-2.1c.3-1.5.6-3 .7-4.5l-7.5-1.4c.1-1.5 0-2.9-.1-4.4l7.5-4c-.1-1.5-.3-3-.6-4.5l-7.9.6c-.3-1.4-.8-2.8-1.3-4.2l5.9-5.7c-.6-1.4-1.2-2.8-1.9-4.1l-7.6 2.6c-.7-1.3-1.5-2.6-2.4-3.8l3.8-7c-.9-1.3-1.9-2.5-2.9-3.6l-6.8 4.4c-1.1-1.1-2.3-2.1-3.5-3.1l1.3-7.8c-1.2-1-2.5-1.9-3.8-2.8l-5.4 6c-1.3-.8-2.7-1.5-4.2-2.2l-1.2-7.9c-1.4-.6-2.9-1.2-4.4-1.7l-3.7 7.1c-1.5-.4-3-.8-4.6-1.1L68.7.3C67.1.1 65.6 0 64 0zm0 21.8c1.1 0 2.2.1 3.3.2l1.2 5.3c1.1.2 2.2.4 3.2.8l2.6-4.9c1.1.3 2.1.7 3.1 1.2l.8 5.5c1 .5 2 1 3 1.6l3.8-4.2c.9.6 1.8 1.3 2.7 2l-.3 5.5c.9.7 1.7 1.4 2.4 2.2l4.7-3.1c.7.8 1.4 1.6 2 2.5l-1.4 5.3c.7.9 1.2 1.7 1.7 2.7l5.2-1.8c.5.9.9 1.9 1.3 2.9l-2.4 4.9c.4 1 .7 2 1 3l5.4-.4c.2 1 .4 2.1.5 3.1l-3.3 4.2c.1 1 .1 2 .1 3.1l5.2 1c0 1-.1 2.1-.3 3.1l-4 3.3c-.2 1-.4 2-.7 3l4.7 2.3c-.3 1-.7 2-1.1 2.9l-4.5 2.2c-.5 1-1 1.9-1.6 2.7l3.8 3.4c-.6.9-1.2 1.8-1.9 2.6l-4.8.9c-.7.8-1.5 1.6-2.3 2.3l2.7 4.3c-.8.7-1.6 1.4-2.5 2l-4.7-.4c-.9.6-1.8 1.2-2.8 1.7l1.4 4.9c-.9.5-1.9.9-2.9 1.3l-4.3-1.8c-1 .4-2 .7-3 1l0 5c-1 .2-2.1.4-3.1.5l-3.6-2.9c-1 .1-2.1.2-3.1.2s-2.1-.1-3.1-.2l-3.6 2.9c-1.1-.1-2.1-.3-3.1-.5l0-5c-1-.3-2-.6-3-1l-4.3 1.8c-1-.4-2-.8-2.9-1.3l1.4-4.9c-1-.5-1.9-1.1-2.8-1.7l-4.7.4c-.9-.6-1.7-1.3-2.5-2l2.7-4.3c-.8-.7-1.6-1.5-2.3-2.3l-4.8-.9c-.7-.8-1.3-1.7-1.9-2.6l3.8-3.4c-.6-.9-1.1-1.8-1.6-2.7l-4.5-2.2c-.4-.9-.8-1.9-1.1-2.9l4.7-2.3c-.3-1-.5-2-.7-3l-4-3.3c-.2-1-.3-2.1-.3-3.1l5.2-1c0-1 0-2 .1-3.1l-3.3-4.2c.1-1.1.3-2.1.5-3.1l5.4.4c.3-1 .6-2 1-3l-2.4-4.9c.4-1 .8-1.9 1.3-2.9l5.2 1.8c.5-.9 1-1.8 1.7-2.7l-1.4-5.3c.6-.9 1.3-1.7 2-2.5l4.7 3.1c.7-.8 1.5-1.5 2.4-2.2l-.3-5.5c.9-.7 1.8-1.4 2.7-2l3.8 4.2c1-.6 2-1.1 3-1.6l.8-5.5c1-.5 2-.9 3.1-1.2l2.6 4.9c1.1-.3 2.2-.6 3.2-.8l1.2-5.3c1.1-.1 2.2-.2 3.3-.2zM64 36c-15.5 0-28 12.5-28 28s12.5 28 28 28 28-12.5 28-28-12.5-28-28-28zm0 8c11 0 20 9 20 20s-9 20-20 20-20-9-20-20 9-20 20-20z"/>
</svg>
